
<svg width="24" height="24" viewBox="0 0 24 24" fill="none" xmlns="http://www.w3.org/2000/svg">
  <path d="M6 13.87C6 13.09 5.48 12.39 4.73 12.18C2.78 11.6 2 10.09 2 8C2 5.79 3.79 4 6 4C6.25 4 6.48 4.03 6.74 4.06C7.68 1.83 9.67 0.3 12 0.3C14.33 0.3 16.32 1.75 17.26 4.05C17.52 4.02 17.74 4 18 4C20.21 4 22 5.79 22 8C22 10.09 21.22 11.6 19.27 12.17C18.52 12.38 18 13.09 18 13.87V22C18 22.55 17.55 23 17 23H7C6.45 23 6 22.55 6 22V13.87Z" fill="currentColor"/>
  <path d="M12 12C14.7614 12 17 9.76142 17 7H7C7 9.76142 9.23858 12 12 12Z" fill="white"/>
</svg>
